<?xml version="1.0" encoding="UTF-8" standalone="no"?>
<!-- Created with Inkscape (http://www.inkscape.org/) -->

<svg
   width="83.130981mm"
   height="51.447208mm"
   viewBox="0 0 83.130981 51.447208"
   version="1.1"
   id="svg19511"
   inkscape:version="1.1.1 (3bf5ae0d25, 2021-09-20)"
   sodipodi:docname="mmm.svg"
   xmlns:inkscape="http://www.inkscape.org/namespaces/inkscape"
   xmlns:sodipodi="http://sodipodi.sourceforge.net/DTD/sodipodi-0.dtd"
   xmlns="http://www.w3.org/2000/svg"
   xmlns:svg="http://www.w3.org/2000/svg">
  <sodipodi:namedview
     id="namedview19513"
     pagecolor="#ffffff"
     bordercolor="#999999"
     borderopacity="1"
     inkscape:pageshadow="0"
     inkscape:pageopacity="0"
     inkscape:pagecheckerboard="0"
     inkscape:document-units="mm"
     showgrid="false"
     inkscape:zoom="0.66368547"
     inkscape:cx="157.4541"
     inkscape:cy="137.86651"
     inkscape:window-width="1920"
     inkscape:window-height="1013"
     inkscape:window-x="-9"
     inkscape:window-y="-9"
     inkscape:window-maximized="1"
     inkscape:current-layer="layer1"
     fit-margin-top="0"
     fit-margin-left="0"
     fit-margin-right="0"
     fit-margin-bottom="0" />
  <defs
     id="defs19508" />
  <g
     inkscape:label="Layer 1"
     inkscape:groupmode="layer"
     id="layer1"
     transform="translate(-58.896252,-112.21196)">
    <g
       id="g19732"
       transform="translate(276.05168,-183.69515)">
      <path
         id="path882"
         style="fill:#1f4690;fill-opacity:1;stroke:none;stroke-width:0.616046"
         d="m -160.21037,331.58211 -0.006,0.95911 h 5.96966 c 6.02641,0 6.12401,-0.001 6.26526,-0.14727 0.1952,-0.19777 0.18351,-0.41161 -0.0295,-0.63097 l -0.17519,-0.18087 h -6.09007 z" />
      <path
         id="path17181"
         style="fill:#1f4690;fill-opacity:1;stroke:none;stroke-width:0.616045"
         d="m -150.80526,295.90957 c -7.27214,0 -7.72431,0.0143 -8.107,0.13644 -1.26116,0.39884 -2.02609,1.19693 -2.43758,2.54143 l -0.17518,0.57156 -0.0212,16.06309 c -0.0195,17.85271 -0.0466,16.7041 0.42323,17.78497 0.43082,0.98991 1.29104,1.71043 2.33991,1.96318 l 0.005,-0.003 c 0.35296,0.0864 1.7794,0.10559 7.96283,0.11059 6.92292,0.006 7.54279,0 7.65431,-0.11419 0.14343,-0.14573 0.15684,-0.45942 0.0269,-0.65836 -0.0918,-0.14388 -0.26712,-0.15007 -7.75301,-0.18037 -7.22905,-0.0345 -7.67939,-0.0438 -7.99073,-0.17259 -1.01712,-0.4183 -1.54696,-1.13173 -1.75597,-2.36368 -0.0406,-0.19979 -0.0677,-0.99105 -0.0677,-1.75699 v -1.39319 c 0.0241,-0.12983 -0.0294,-0.81275 0.004,-0.95964 v -12.96149 -12.96096 h 0.002 11.47062 11.47372 l -0.004,-0.95705 h -11.47114 -11.47113 -0.002 v 0 -0.23098 -0.23048 c 0,-0.013 2.7e-4,-0.0259 5.3e-4,-0.0388 1e-5,0 0,-0.003 0,-0.003 0.009,-0.86077 0.2971,-1.78363 0.72347,-2.32648 0.27534,-0.34957 0.8727,-0.68397 1.47123,-0.82063 0.4503,-0.10419 1.53388,-0.11713 9.29091,-0.11626 9.37352,0 9.23392,-0.004 9.96734,0.35811 0.41953,0.20709 0.90688,0.74589 1.12345,1.23868 0.18948,0.43344 0.3609,1.30267 0.36535,1.85415 v 0 0 l 0.004,0.31366 h -0.002 l 0.004,0.95705 v 0.0429 0 0.28112 l 0.81649,-0.0677 c -0.0183,-1.836 -0.0494,-2.65909 -0.13798,-3.01014 -0.19368,-0.76499 -0.43573,-1.24814 -0.87643,-1.75183 -0.40132,-0.4581 -0.96389,-0.80322 -1.65261,-1.01182 -0.40137,-0.12372 -1.0427,-0.12972 -9.65523,-0.12972 h -5.3e-4 c -0.54743,0 -1.06238,-8e-5 -1.54719,0 z" />
      <g
         transform="matrix(0.75893935,0,0,0.75893935,-508.14707,152.44594)"
         id="g888"
         style="fill:#1f4690;fill-opacity:0.866667">
        <path
           inkscape:connector-curvature="0"
           style="fill:#1f4690;fill-opacity:0.866667;stroke-width:16.2151"
           d="m 1793.4219,794.55664 c -1.5454,0.016 -2.1055,0.13006 -4.1582,0.83789 -1.3062,0.44973 -2.5401,0.81641 -2.7227,0.81641 -0.1925,0 -1.3935,-0.3588 -2.6699,-0.79492 -2.5697,-0.87697 -4.1756,-1.01473 -5.8516,-0.50782 -3.3527,1.01749 -5.9357,3.91703 -6.8125,7.6543 -0.8405,3.57555 0.059,9.30781 2.0938,13.33984 1.5927,3.15636 4.1491,6.23305 5.832,7.02539 v 0.004 c 1.2698,0.59819 1.9087,0.5879 3.7012,-0.0469 3.642,-1.29003 4.8267,-1.33291 7.664,-0.28711 3.8252,1.41002 5.769,0.53718 8.7696,-3.93555 0.7898,-1.17732 2.1785,-3.93937 2.4707,-4.91211 0.105,-0.34934 -0.027,-0.5164 -0.7324,-0.92969 -2.989,-1.75158 -4.6348,-5.13777 -4.1485,-8.52929 0.2985,-2.07769 1.1373,-3.62855 2.7403,-5.0625 l 1.2363,-1.10743 -0.5078,-0.60742 c -1.6176,-1.93338 -4.0868,-3.00276 -6.9043,-2.95703 z"
           id="path884"
           transform="scale(0.26458333)" />
        <path
           inkscape:connector-curvature="0"
           style="fill:#1f4690;fill-opacity:0.866667;stroke-width:16.2151"
           d="m 1793.9746,785.23828 -0.7715,0.13672 c -0.427,0.0754 -1.4144,0.44517 -2.1953,0.82422 -2.5718,1.24789 -4.3479,3.76241 -4.5762,6.48242 l -0.1093,1.40039 1.0722,-0.13672 c 3.2918,-0.41968 6.2302,-3.73302 6.4883,-7.3125 z"
           id="path886"
           transform="scale(0.26458333)" />
      </g>
      <g
         id="g19345">
        <g
           id="g19332">
          <g
             id="g19320"
             inkscape:export-filename="E:\Design &amp; Arts\Graphic design\projects\MMM\MMM\Logo\g19320.png"
             inkscape:export-xdpi="300"
             inkscape:export-ydpi="300">
            <g
               transform="matrix(1.1761484,0,0,1.1761484,-901.84137,514.36178)"
               id="g878"
               style="fill:#dc143c;fill-opacity:1"
               inkscape:export-xdpi="300"
               inkscape:export-ydpi="300">
              <g
                 id="g876"
                 transform="matrix(0.37525261,0,0,0.37525261,354.72272,-104.7296)"
                 style="fill:#dc143c;fill-opacity:1;stroke:none">
                <path
                   inkscape:connector-curvature="0"
                   id="path868"
                   d="m 694.81641,-214.75195 -47.66602,42.49414 5.32227,5.9707 34.34375,-30.61523 v 70.25 h 8 z"
                   style="color:#000000;font-style:normal;font-variant:normal;font-weight:normal;font-stretch:normal;font-size:medium;line-height:normal;font-family:sans-serif;font-variant-ligatures:normal;font-variant-position:normal;font-variant-caps:normal;font-variant-numeric:normal;font-variant-alternates:normal;font-feature-settings:normal;text-indent:0;text-align:start;text-decoration:none;text-decoration-line:none;text-decoration-style:solid;text-decoration-color:#000000;letter-spacing:normal;word-spacing:normal;text-transform:none;writing-mode:lr-tb;direction:ltr;text-orientation:mixed;dominant-baseline:auto;baseline-shift:baseline;text-anchor:start;white-space:normal;shape-padding:0;clip-rule:nonzero;display:inline;overflow:visible;visibility:visible;opacity:1;isolation:auto;mix-blend-mode:normal;color-interpolation:sRGB;color-interpolation-filters:linearRGB;solid-color:#000000;solid-opacity:1;vector-effect:none;fill:#dc143c;fill-opacity:1;fill-rule:nonzero;stroke:none;stroke-width:8;stroke-linecap:butt;stroke-linejoin:miter;stroke-miterlimit:4;stroke-dasharray:none;stroke-dashoffset:0;stroke-opacity:1;color-rendering:auto;image-rendering:auto;shape-rendering:auto;text-rendering:auto;enable-background:accumulate" />
                <path
                   inkscape:connector-curvature="0"
                   id="path870"
                   d="m 708.57227,-212.7832 -8,0.041 0.45117,85.99414 8,-0.041 z"
                   style="color:#000000;font-style:normal;font-variant:normal;font-weight:normal;font-stretch:normal;font-size:medium;line-height:normal;font-family:sans-serif;font-variant-ligatures:normal;font-variant-position:normal;font-variant-caps:normal;font-variant-numeric:normal;font-variant-alternates:normal;font-feature-settings:normal;text-indent:0;text-align:start;text-decoration:none;text-decoration-line:none;text-decoration-style:solid;text-decoration-color:#000000;letter-spacing:normal;word-spacing:normal;text-transform:none;writing-mode:lr-tb;direction:ltr;text-orientation:mixed;dominant-baseline:auto;baseline-shift:baseline;text-anchor:start;white-space:normal;shape-padding:0;clip-rule:nonzero;display:inline;overflow:visible;visibility:visible;opacity:1;isolation:auto;mix-blend-mode:normal;color-interpolation:sRGB;color-interpolation-filters:linearRGB;solid-color:#000000;solid-opacity:1;vector-effect:none;fill:#dc143c;fill-opacity:1;fill-rule:nonzero;stroke:none;stroke-width:8;stroke-linecap:butt;stroke-linejoin:miter;stroke-miterlimit:4;stroke-dasharray:none;stroke-dashoffset:0;stroke-opacity:1;color-rendering:auto;image-rendering:auto;shape-rendering:auto;text-rendering:auto;enable-background:accumulate" />
                <path
                   inkscape:connector-curvature="0"
                   id="path872"
                   d="m 721.53125,-212.78516 -8,0.043 0.45117,86.2168 8,-0.041 z"
                   style="color:#000000;font-style:normal;font-variant:normal;font-weight:normal;font-stretch:normal;font-size:medium;line-height:normal;font-family:sans-serif;font-variant-ligatures:normal;font-variant-position:normal;font-variant-caps:normal;font-variant-numeric:normal;font-variant-alternates:normal;font-feature-settings:normal;text-indent:0;text-align:start;text-decoration:none;text-decoration-line:none;text-decoration-style:solid;text-decoration-color:#000000;letter-spacing:normal;word-spacing:normal;text-transform:none;writing-mode:lr-tb;direction:ltr;text-orientation:mixed;dominant-baseline:auto;baseline-shift:baseline;text-anchor:start;white-space:normal;shape-padding:0;clip-rule:nonzero;display:inline;overflow:visible;visibility:visible;opacity:1;isolation:auto;mix-blend-mode:normal;color-interpolation:sRGB;color-interpolation-filters:linearRGB;solid-color:#000000;solid-opacity:1;vector-effect:none;fill:#dc143c;fill-opacity:1;fill-rule:nonzero;stroke:none;stroke-width:8;stroke-linecap:butt;stroke-linejoin:miter;stroke-miterlimit:4;stroke-dasharray:none;stroke-dashoffset:0;stroke-opacity:1;color-rendering:auto;image-rendering:auto;shape-rendering:auto;text-rendering:auto;enable-background:accumulate" />
                <path
                   inkscape:connector-curvature="0"
                   id="path874"
                   d="m 606.26953,-214.4043 -0.2168,87.87305 8,0.0195 0.16407,-66.41992 37.97851,44.06445 29.34571,-26.67773 -5.38086,-5.91992 -23.26758,21.15234 z"
                   style="color:#000000;font-style:normal;font-variant:normal;font-weight:normal;font-stretch:normal;font-size:medium;line-height:normal;font-family:sans-serif;font-variant-ligatures:normal;font-variant-position:normal;font-variant-caps:normal;font-variant-numeric:normal;font-variant-alternates:normal;font-feature-settings:normal;text-indent:0;text-align:start;text-decoration:none;text-decoration-line:none;text-decoration-style:solid;text-decoration-color:#000000;letter-spacing:normal;word-spacing:normal;text-transform:none;writing-mode:lr-tb;direction:ltr;text-orientation:mixed;dominant-baseline:auto;baseline-shift:baseline;text-anchor:start;white-space:normal;shape-padding:0;clip-rule:nonzero;display:inline;overflow:visible;visibility:visible;opacity:1;isolation:auto;mix-blend-mode:normal;color-interpolation:sRGB;color-interpolation-filters:linearRGB;solid-color:#000000;solid-opacity:1;vector-effect:none;fill:#dc143c;fill-opacity:1;fill-rule:nonzero;stroke:none;stroke-width:8;stroke-linecap:butt;stroke-linejoin:miter;stroke-miterlimit:4;stroke-dasharray:none;stroke-dashoffset:0;stroke-opacity:1;color-rendering:auto;image-rendering:auto;shape-rendering:auto;text-rendering:auto;enable-background:accumulate" />
              </g>
            </g>
            <text
               xml:space="preserve"
               style="font-style:normal;font-variant:normal;font-weight:600;font-stretch:normal;font-size:8.64175px;line-height:1.25;font-family:'Yu Gothic UI';-inkscape-font-specification:'Yu Gothic UI, Semi-Bold';font-variant-ligatures:normal;font-variant-caps:normal;font-variant-numeric:normal;font-variant-east-asian:normal;text-align:start;letter-spacing:0px;word-spacing:0px;writing-mode:lr-tb;text-anchor:start;fill:#000000;fill-opacity:1;stroke:none;stroke-width:0.0629071"
               x="-217.9023"
               y="347.25305"
               id="text894"
               inkscape:export-xdpi="300"
               inkscape:export-ydpi="300"><tspan
                 sodipodi:role="line"
                 id="tspan892"
                 x="-217.9023"
                 y="347.25305"
                 style="font-style:normal;font-variant:normal;font-weight:600;font-stretch:normal;font-size:8.64175px;font-family:'Yu Gothic UI';-inkscape-font-specification:'Yu Gothic UI, Semi-Bold';font-variant-ligatures:normal;font-variant-caps:normal;font-variant-numeric:normal;font-variant-east-asian:normal;text-align:start;writing-mode:lr-tb;text-anchor:start;stroke-width:0.0629071">Mobile Media Master</tspan></text>
            <path
               id="path11459"
               style="fill:#1f4690;fill-opacity:1;stroke-width:0.0743413"
               d="m -137.63179,302.42251 c -0.13107,3.2e-4 -0.27501,0.002 -0.42578,0.005 l -1.09671,0.0197 -0.41898,1.53735 -0.41943,1.53775 0.35679,0.62167 0.35634,0.62208 v 6.15108 6.15148 l -0.71495,0.0202 -0.71494,0.0205 -0.0218,0.76909 -0.0218,0.76867 h -0.73174 -0.73174 v 0.42509 0.4255 l 0.40582,0.0219 0.40581,0.0214 0.0209,1.34454 0.0209,1.34413 0.44304,-0.0215 0.44259,-0.0215 0.0222,-0.62544 0.0222,-0.62587 h 0.49932 0.49933 v 5.34208 5.34207 l -0.31548,-0.28268 c -0.17363,-0.15549 -0.39095,-0.41142 -0.48299,-0.56874 -0.16398,-0.28024 -0.16822,-0.36155 -0.20608,-4.00465 l -0.0386,-3.71864 -0.44713,-0.0214 -0.44667,-0.0215 0.0218,3.81146 0.0218,3.81186 0.22561,0.42593 c 0.40154,0.75785 1.09346,1.33045 1.94419,1.60874 h 4.5e-4 c 0.69972,0.22888 1.67434,0.18093 2.36045,-0.11635 0.8937,-0.38724 1.48291,-1.00944 1.76988,-1.86918 0.14656,-0.4384 0.15253,-0.68115 0.15253,-5.81334 v -5.35594 h 0.42533 0.42488 v -0.42928 -0.42887 h -0.77305 -0.77259 v -0.78673 -0.78674 h -0.65684 -0.65684 v -6.14478 -6.14433 l 0.30913,-0.59183 c 0.17002,-0.32533 0.30913,-0.6433 0.30913,-0.70693 0,-0.0637 -0.15645,-0.76413 -0.34772,-1.55667 -0.19127,-0.79258 -0.34816,-1.45937 -0.34816,-1.48148 0,-0.0165 -0.27724,-0.0258 -0.67046,-0.0248 z m -0.66365,0.84848 c 0.0568,-0.007 0.12893,0.007 0.23151,0.0126 l 0.35679,0.0215 0.25329,1.05262 0.25284,1.0522 -0.30504,0.61158 c -0.24786,0.49646 -0.30549,0.69187 -0.30549,1.03918 v 0.42802 h -0.27055 -0.27009 v -0.46499 c 0,-0.41024 -0.0386,-0.53038 -0.32774,-1.02741 l -0.32728,-0.56327 0.22333,-0.84933 c 0.2879,-1.09417 0.31818,-1.29238 0.48843,-1.31263 z m 0.21335,5.07577 c 0.21901,0 0.27055,0.0272 0.27055,0.14279 0,0.11582 -0.0516,0.14324 -0.27055,0.14324 -0.21901,0 -0.27009,-0.0274 -0.27009,-0.14324 0,-0.11579 0.0511,-0.14279 0.27009,-0.14279 z m -0.27009,1.14418 h 0.27009 0.27055 v 4.79141 4.79096 h -0.27055 -0.27009 v -4.79096 z m -1.46847,10.47623 h 1.66139 1.66139 v 0.3398 l 4.6e-4,0.33981 h -1.66185 -1.66139 v -0.33981 z m -0.61826,1.53776 h 2.31824 2.31868 v 0.28604 0.28605 h -2.31868 -2.31824 v -0.28605 z m 1.93194,1.43022 h 0.3863 0.38629 v 3.07513 3.07511 h 0.46392 0.46347 v -3.07511 -3.07513 h 0.50477 0.50432 l -0.0213,4.73764 -0.0213,4.73763 -0.18248,0.32174 c -0.18425,0.32542 -0.60747,0.78675 -0.72175,0.78675 -0.0341,0 -0.0617,-0.75769 -0.0617,-1.68392 v -1.68438 l -0.4444,0.0215 -0.4444,0.0214 -0.0209,1.87718 -0.0204,1.87755 h -0.38539 -0.38494 v -5.5067 z" />
          </g>
        </g>
      </g>
    </g>
  </g>
</svg>
